Coordinates
version=1
nRows=54
nColumns=12
inDegrees=yes

Units are S.I. units (second, meters, Newtons, ...)
Angles are in degrees

endheader
time	SC_y	SC_z	SC_x	AC_y	AC_z	AC_x	GH_y	GH_z	GH_yy	EL_x	PS_y
       0.0              -14.87          24.94          50.35          51.99         -12.98        0.01581         -19.48          7.827          149.5          88.17          16.73
   0.04651              -14.87          24.93          50.36          51.99         -12.98        0.01603         -19.51          7.831          149.5          88.16          16.74
   0.09301              -14.87          24.93          50.36          51.99         -12.99        0.01627         -19.53          7.834          149.4          88.15          16.75
    0.1395              -14.87          24.93          50.37          51.99         -12.99        0.01652         -19.55          7.838          149.4          88.14          16.76
     0.186              -14.87          24.92          50.37          51.99         -12.99        0.01679         -19.58          7.843          149.3          88.13          16.77
    0.2325              -14.88          24.92          50.38          51.99         -12.99        0.01708         -19.61          7.847          149.3          88.12          16.78
     0.279              -14.88          24.92          50.38          51.99         -12.99        0.01739         -19.64          7.852          149.2          88.11           16.8
    0.3255              -14.88          24.91          50.39          51.99         -12.99        0.01772         -19.67          7.857          149.2          88.09          16.81
     0.372              -14.88          24.91          50.39          51.99         -12.99        0.01807          -19.7          7.863          149.1          88.08          16.82
    0.4185              -14.88           24.9           50.4          51.99         -12.99        0.01844         -19.74          7.869          149.0          88.06          16.84
    0.4651              -14.89           24.9          50.41          51.99          -13.0        0.01885         -19.78          7.875          148.9          88.05          16.86
    0.5116              -14.89          24.89          50.42          51.99          -13.0        0.01928         -19.82          7.882          148.8          88.03          16.87
    0.5581              -14.89          24.88          50.43          51.99          -13.0        0.01975         -19.87           7.89          148.7          88.01          16.89
    0.6046               -14.9          24.88          50.43          51.99          -13.0        0.02026         -19.92          7.898          148.6          87.99          16.91
    0.6511               -14.9          24.87          50.44          51.99          -13.0        0.02081         -19.97          7.907          148.5          87.97          16.94
    0.6976              -14.91          24.86          50.45          51.99         -13.01         0.0214         -20.03          7.916          148.4          87.94          16.96
    0.7441              -14.91          24.85          50.47          51.99         -13.01        0.02205         -20.09          7.926          148.3          87.92          16.99
    0.7906              -14.92          24.84          50.48          51.99         -13.01        0.02276         -20.16          7.937          148.1          87.89          17.02
    0.8371              -14.92          24.83          50.49          51.99         -13.02        0.02353         -20.23           7.95          148.0          87.85          17.05
    0.8836              -14.93          24.82          50.51          51.99         -13.02        0.02437         -20.32          7.963          147.8          87.82          17.08
    0.9301              -14.93          24.81          50.52          51.99         -13.02        0.02529         -20.41          7.978          147.6          87.78          17.12
    0.9766              -14.94          24.79          50.54          51.99         -13.03        0.02631         -20.51          7.994          147.4          87.74          17.16
     1.023              -14.95          24.78          50.56          51.99         -13.03        0.02744         -20.61          8.012          147.2          87.69          17.21
      1.07              -14.96          24.76          50.58          51.99         -13.04        0.02868         -20.74          8.031          147.0          87.64          17.26
     1.116              -14.97          24.74          50.61          51.99         -13.04        0.03007         -20.87          8.053          146.7          87.58          17.32
     1.163              -14.98          24.72          50.64          51.99         -13.05        0.03161         -21.02          8.078          146.4          87.52          17.38
     1.209              -14.99           24.7          50.67          51.99         -13.06        0.03334         -21.19          8.105          146.0          87.45          17.45
     1.256               -15.0          24.67           50.7          51.99         -13.06        0.03529         -21.38          8.136          145.6          87.37          17.53
     1.302              -15.02          24.64          50.74          51.99         -13.07        0.03749         -21.59          8.171          145.2          87.28          17.62
     1.349              -15.04          24.61          50.79          51.99         -13.08        0.03999         -21.83          8.211          144.7          87.17          17.73
     1.395              -15.06          24.57          50.84          51.99          -13.1        0.04284         -22.11          8.256          144.1          87.06          17.84
     1.442              -15.08          24.52           50.9          51.99         -13.11        0.04612         -22.43          8.308          143.5          86.92          17.98
     1.488              -15.11          24.47          50.96          51.99         -13.13         0.0499          -22.8          8.368          142.7          86.77          18.13
     1.535              -15.14          24.41          51.04          51.99         -13.14        0.05429         -23.22          8.438          141.8          86.58          18.31
     1.581              -15.18          24.34          51.13          51.99         -13.17        0.05943         -23.72          8.519          140.8          86.37          18.53
     1.628              -15.22          24.26          51.24          51.99         -13.19        0.06548         -24.31          8.616          139.6          86.12          18.77
     1.674              -15.27          24.16          51.37          51.99         -13.22        0.07268         -25.01           8.73          138.1          85.82          19.07
     1.721              -15.33          24.05          51.52          51.99         -13.26        0.08131         -25.85          8.867          136.4          85.47          19.43
     1.767              -15.41           23.9          51.71          51.99          -13.3        0.09175         -26.86          9.033          134.3          85.04          19.86
     1.814               -15.5          23.73          51.94          51.99         -13.35         0.1045          -28.1          9.235          131.8          84.51          20.38
      1.86              -15.61          23.52          52.22          51.99         -13.42         0.1202         -29.63          9.485          128.6          83.86          21.03
     1.907              -15.75          23.25          52.57          51.99          -13.5         0.1399         -31.54          9.796          124.7          83.05          21.83
     1.953              -15.92          22.91          53.01          51.99          -13.6         0.1646         -33.94          10.19          119.7          82.03          22.85
       2.0              -16.15          22.49          53.57          51.99         -13.74          0.196          -37.0          10.69          113.5          80.73          24.14
     2.046              -16.43          21.94          54.29          51.99          -13.9         0.2362         -40.91          11.33          105.4          79.07           25.8
     2.093               -16.8          21.24          55.21          51.99         -14.12         0.2878         -45.92          12.15          95.06          76.94          27.92
     2.139              -17.27          20.34          56.39          51.99         -14.39         0.3538         -52.33          13.19          81.86          74.21          30.63
     2.186              -17.86          19.21          57.87           52.0         -14.74         0.4367         -60.39          14.51          65.26          70.79          34.04
     2.232              -18.58          17.84          59.67           52.0         -15.16         0.5377         -70.21          16.11          45.03          66.61           38.2
     2.279              -19.41          16.24          61.76           52.0         -15.65         0.6548         -81.59          17.97          21.57          61.78          43.02
     2.325              -20.31          14.52          64.03           52.0         -16.18         0.7816         -93.91          19.98         -3.818          56.54          48.23
     2.372              -21.22          12.79          66.29           52.0         -16.71         0.9084         -106.2           22.0         -29.21           51.3          53.45
     2.418              -22.05           11.2          68.38           52.0          -17.2          1.026         -117.6          23.86         -52.66          46.46          58.27
     2.465              -22.77          9.825          70.19           52.0         -17.62          1.127         -127.4          25.46         -72.89          42.29          62.42
